Coordinates
version=1
nRows=27
nColumns=38
inDegrees=no

Units are S.I. units (second, meters, Newtons, ...)
If the header above contains a line with 'inDegrees', this indicates whether rotational values are in degrees (yes) or radians (no).

endheader
time	pelvis_tilt	pelvis_list	pelvis_rotation	pelvis_tx	pelvis_ty	pelvis_tz	hip_flexion_r	hip_adduction_r	hip_rotation_r	knee_angle_r	ankle_angle_r	subtalar_angle_r	mtp_angle_r	hip_flexion_l	hip_adduction_l	hip_rotation_l	knee_angle_l	ankle_angle_l	subtalar_angle_l	mtp_angle_l	lumbar_extension	lumbar_bending	lumbar_rotation	arm_flex_r	arm_add_r	arm_rot_r	elbow_flex_r	pro_sup_r	wrist_flex_r	wrist_dev_r	arm_flex_l	arm_add_l	arm_rot_l	elbow_flex_l	pro_sup_l	wrist_flex_l	wrist_dev_l
0	0.939603	1.40048	0.591921	0.751055	-0.397294	0.967211	0.160649	0.126585	-0.162457	0.296282	0.125677	0	0	0.0166567	-0.117437	-0.167518	0.00646606	0.0644221	0	0	0.0663527	0.184325	0.0667309	-0.159979	-0.31825	0.35578	0.691397	1.13823	0	0	-0.0730951	-0.206935	0.560043	0.560288	0.833934	0	0
0.01	0.929063	1.40024	0.601532	0.751001	-0.397134	0.967034	0.160798	0.126354	-0.159129	0.293167	0.124849	0	0	0.0185633	-0.116533	-0.167433	0.0076802	0.0650359	0	0	0.0686036	0.183664	0.0674717	-0.159294	-0.318257	0.356636	0.689231	1.13901	0	0	-0.0733387	-0.206848	0.560935	0.560662	0.834421	0	0
0.02	0.867641	1.40703	0.662791	0.751349	-0.396826	0.965795	0.160716	0.117846	-0.149355	0.281919	0.125705	0	0	0.023049	-0.104187	-0.165795	0.00820712	0.0660891	0	0	0.0745936	0.169357	0.0668707	-0.159816	-0.314868	0.357127	0.689259	1.13922	0	0	-0.0760111	-0.212205	0.561142	0.566623	0.835143	0	0
0.03	0.87013	1.40728	0.660198	0.751242	-0.396646	0.965741	0.160031	0.11783	-0.148998	0.282015	0.126316	0	0	0.0226504	-0.104125	-0.165848	0.00866939	0.067365	0	0	0.0743431	0.169553	0.0668198	-0.159647	-0.315315	0.356549	0.690055	1.13864	0	0	-0.0757772	-0.21183	0.562392	0.566426	0.835755	0	0
0.04	0.871493	1.4077	0.65872	0.75115	-0.396476	0.965697	0.15915	0.117631	-0.148406	0.281616	0.126812	0	0	0.0222839	-0.103821	-0.165926	0.00935772	0.0682402	0	0	0.0740603	0.169519	0.0668972	-0.15965	-0.315646	0.355921	0.690239	1.13796	0	0	-0.0757552	-0.211507	0.563496	0.566237	0.836539	0	0
0.05	0.873117	1.40804	0.657057	0.75107	-0.396311	0.965656	0.158685	0.117336	-0.148766	0.282039	0.12756	0	0	0.0219741	-0.103653	-0.166082	0.0100864	0.0690259	0	0	0.0737791	0.16955	0.0669148	-0.159811	-0.31594	0.354821	0.690773	1.13719	0	0	-0.076025	-0.211262	0.564374	0.566216	0.837306	0	0
0.06	0.875522	1.40836	0.654732	0.750987	-0.396166	0.96562	0.158492	0.117034	-0.149535	0.283239	0.128573	0	0	0.0216218	-0.103582	-0.166158	0.0108651	0.0698989	0	0	0.0734082	0.169682	0.0666671	-0.159886	-0.316236	0.354099	0.690894	1.13715	0	0	-0.0764832	-0.211025	0.565168	0.566326	0.837947	0	0
0.07	0.812348	1.41603	0.71827	0.751116	-0.395869	0.964452	0.164958	0.0987048	-0.162349	0.292842	0.141966	0	0	0.0244711	-0.0899961	-0.16469	0.0108839	0.0704887	0	0	0.0776693	0.154979	0.0657094	-0.161012	-0.313281	0.353497	0.691247	1.1399	0	0	-0.0797299	-0.215918	0.565064	0.572381	0.839261	0	0
0.08	0.883469	1.40944	0.647052	0.75084	-0.395902	0.965581	0.157492	0.116491	-0.150317	0.285773	0.130582	0	0	0.0202464	-0.103394	-0.166212	0.012311	0.0716134	0	0	0.071712	0.169931	0.0663688	-0.160202	-0.316735	0.352461	0.689706	1.14072	0	0	-0.0773356	-0.210465	0.566834	0.566533	0.839584	0	0
0.09	0.805285	1.4167	0.724931	0.750991	-0.395634	0.96424	0.166371	0.096798	-0.163597	0.295818	0.144816	0	0	0.0255859	-0.0885926	-0.165159	0.0128304	0.0724028	0	0	0.0781907	0.154101	0.0664809	-0.162441	-0.313595	0.351669	0.690106	1.14357	0	0	-0.0807207	-0.215661	0.567873	0.572598	0.840834	0	0
0.1	0.820851	1.41758	0.709082	0.750947	-0.395521	0.964372	0.162554	0.0982843	-0.161134	0.293262	0.143378	0	0	0.0233455	-0.0896534	-0.166376	0.0139163	0.0735777	0	0	0.0752368	0.155427	0.0670885	-0.162844	-0.314417	0.351409	0.690451	1.14436	0	0	-0.0804863	-0.214804	0.568842	0.571636	0.84151	0	0
0.11	0.889404	1.4109	0.640037	0.75072	-0.39558	0.965538	0.154773	0.116153	-0.147875	0.284693	0.131182	0	0	0.0196276	-0.102847	-0.168226	0.015866	0.0743209	0	0	0.06965	0.170056	0.0680654	-0.162182	-0.317796	0.350923	0.688666	1.14485	0	0	-0.0783743	-0.209259	0.570322	0.565259	0.841814	0	0
0.12	0.886805	1.41119	0.641974	0.750698	-0.395506	0.965508	0.153841	0.116044	-0.145979	0.282592	0.130619	0	0	0.0200582	-0.102356	-0.168766	0.0168524	0.0749162	0	0	0.0696867	0.169831	0.0688076	-0.162792	-0.31808	0.351202	0.687347	1.14551	0	0	-0.0789826	-0.208631	0.571029	0.564524	0.842202	0	0
0.13	0.884779	1.41129	0.643423	0.750684	-0.395426	0.965488	0.153134	0.116103	-0.144263	0.280894	0.130092	0	0	0.0204705	-0.10206	-0.169107	0.0175498	0.0755163	0	0	0.0698251	0.169859	0.0691474	-0.163546	-0.318523	0.351015	0.686965	1.14578	0	0	-0.0799542	-0.207982	0.571196	0.564017	0.84254	0	0
0.14	0.944349	1.39846	0.578088	0.75084	-0.396121	0.966752	0.163093	0.12668	-0.179439	0.300339	0.128268	0	0	0.0205912	-0.120338	-0.175157	0.0202006	0.0765544	0	0	0.0657691	0.190208	0.0752736	-0.162138	-0.323441	0.351438	0.68438	1.14593	0	0	-0.076796	-0.200225	0.572236	0.555494	0.843284	0	0
0.15	0.887739	1.41141	0.639894	0.750693	-0.395188	0.965541	0.152204	0.116348	-0.144026	0.28051	0.130023	0	0	0.0200983	-0.102239	-0.169455	0.0183481	0.0763026	0	0	0.0692806	0.17058	0.0696607	-0.165285	-0.319324	0.351816	0.685007	1.1454	0	0	-0.0819614	-0.206766	0.571306	0.563029	0.844222	0	0
0.16	0.88786	1.41138	0.639473	0.750702	-0.395047	0.965542	0.152309	0.116243	-0.144634	0.281111	0.130309	0	0	0.0198888	-0.102248	-0.169578	0.0183973	0.0764989	0	0	0.0692874	0.170839	0.0700809	-0.166408	-0.319531	0.351551	0.684407	1.14349	0	0	-0.0830993	-0.206294	0.57165	0.562669	0.845644	0	0
0.17	0.885945	1.41135	0.64107	0.750702	-0.394934	0.965518	0.15247	0.116103	-0.144356	0.281146	0.130486	0	0	0.0199754	-0.102104	-0.169738	0.0185174	0.0765593	0	0	0.0696067	0.170936	0.0703255	-0.167662	-0.319742	0.350624	0.68489	1.14239	0	0	-0.0845026	-0.205858	0.571861	0.562404	0.846331	0	0
0.18	0.883484	1.41122	0.643265	0.750716	-0.394836	0.965486	0.152647	0.116058	-0.143817	0.280883	0.130627	0	0	0.0202665	-0.101983	-0.16978	0.0187778	0.0765563	0	0	0.070049	0.171033	0.070383	-0.16887	-0.319898	0.349963	0.684723	1.142	0	0	-0.0858312	-0.205294	0.572027	0.561769	0.846806	0	0
0.19	0.881716	1.41082	0.64471	0.750773	-0.394722	0.965437	0.153193	0.116183	-0.1442	0.28127	0.13097	0	0	0.0206442	-0.102167	-0.170142	0.0188835	0.0769952	0	0	0.0706524	0.17138	0.0703766	-0.170169	-0.320044	0.349597	0.684219	1.1421	0	0	-0.0872591	-0.204742	0.57182	0.561318	0.847717	0	0
0.2	0.879034	1.41032	0.646691	0.750865	-0.394572	0.965378	0.153972	0.116293	-0.14462	0.281852	0.131289	0	0	0.0209911	-0.102375	-0.171088	0.0187622	0.0773896	0	0	0.0715349	0.171756	0.0708614	-0.171743	-0.320238	0.34959	0.68354	1.14227	0	0	-0.0889832	-0.20444	0.571634	0.561347	0.849159	0	0
0.21	0.875395	1.41008	0.649146	0.750945	-0.394376	0.965312	0.1546	0.116216	-0.143783	0.282365	0.131701	0	0	0.0209461	-0.102177	-0.172566	0.0182231	0.0775099	0	0	0.0724111	0.171928	0.0718799	-0.173641	-0.320554	0.349687	0.683438	1.14213	0	0	-0.09082	-0.204073	0.571632	0.561279	0.850236	0	0
0.22	0.873122	1.40982	0.649976	0.75104	-0.3942	0.965257	0.155017	0.116289	-0.143103	0.28277	0.131972	0	0	0.020607	-0.10209	-0.173987	0.01755	0.0775487	0	0	0.0729498	0.172323	0.0730801	-0.175047	-0.320568	0.349	0.682519	1.14106	0	0	-0.0925508	-0.203533	0.571396	0.561092	0.850755	0	0
0.23	0.873177	1.40984	0.649482	0.751086	-0.394074	0.965231	0.154864	0.116349	-0.142707	0.282863	0.132131	0	0	0.0201343	-0.102051	-0.174234	0.0172319	0.0776072	0	0	0.072888	0.172534	0.073254	-0.176107	-0.320391	0.34815	0.681273	1.14022	0	0	-0.0939028	-0.203045	0.570941	0.561036	0.851248	0	0
0.24	0.874938	1.41018	0.647911	0.751102	-0.393953	0.965237	0.154157	0.116369	-0.141963	0.282661	0.13231	0	0	0.0193824	-0.101891	-0.173965	0.0168999	0.0776477	0	0	0.0723487	0.172513	0.0729316	-0.177218	-0.320008	0.346302	0.680561	1.13889	0	0	-0.0951923	-0.202704	0.570382	0.56102	0.852419	0	0
0.25	0.876318	1.41035	0.646668	0.751145	-0.393844	0.965243	0.153758	0.116404	-0.141917	0.282716	0.132583	0	0	0.0189668	-0.101896	-0.174055	0.0168386	0.0778214	0	0	0.0719574	0.172491	0.0726391	-0.178602	-0.319967	0.345685	0.68072	1.13872	0	0	-0.0965179	-0.20241	0.569327	0.56116	0.853984	0	0
0.26	0.876931	1.41029	0.646008	0.75122	-0.393772	0.965231	0.154073	0.116285	-0.143766	0.283657	0.133162	0	0	0.0189254	-0.102119	-0.174327	0.0170521	0.0780317	0	0	0.0717402	0.172553	0.0724649	-0.179705	-0.319941	0.34619	0.680165	1.13807	0	0	-0.0977611	-0.202132	0.567977	0.561421	0.855195	0	0
